# xmcd
#
# Track frame offsets:
# 150
# 14134
# 26390
# 44126
# 57705
# 76117
# 91749
# 106219
# 121986
# 138345
# 159374
# 171199
# 192661
# 204782
# 219064
# 232131
# 248842
# 261774
# 274301
#
# Disc length: 3876 seconds
#
#
# Revision: 0
# Processed by: cddbd v1.5.1PL2 Copyright (c) Steve Scherf et al.
# Submitted via: FreeRIP 2.945 
#
DISCID=0b0f2213
DTITLE=Roberto e Meirinho - O melhor de 
DYEAR=1900
DGENRE=Sertanejo
TTITLE0=A noite do nosso amor
TTITLE1=Pranto escondido
TTITLE2=Lágrimas
TTITLE3=Valeu a pena
TTITLE4=Indiferença
TTITLE5=Amor e regaço
TTITLE6=Teu desprezo
TTITLE7=O vento levou
TTITLE8=Amo você
TTITLE9=Tô naquela que jogaram na geni
TTITLE10=Quanto a gente ama
TTITLE11=Sanfona Furada
TTITLE12=Fungando na barra
TTITLE13=Tu tá comendo vidro
TTITLE14=Forró no escuro
TTITLE15=Metade de mim
TTITLE16=Nada mais quero de ti
TTITLE17=Recordações
TTITLE18=Morto de saudade sua
EXTD=
EXTT0=
EXTT1=
EXTT2=
EXTT3=
EXTT4=
EXTT5=
EXTT6=
EXTT7=
EXTT8=
EXTT9=
EXTT10=
EXTT11=
EXTT12=
EXTT13=
EXTT14=
EXTT15=
EXTT16=
EXTT17=
EXTT18=
PLAYORDER=
